<svg xmlns="http://www.w3.org/2000/svg" width="400" height="400">
  <g fill-rule="evenodd">
    <path d="M183.6 13.938c0 .186-2.648.458-5.885.605-3.237.147-6.063.445-6.28.662-.217.217-1.248.395-2.291.395s-2.008.18-2.144.4c-.136.22-1.036.4-2 .4s-1.864.18-2 .4c-.136.22-.946.4-1.8.4-.854 0-1.649.156-1.768.347-.118.192-1.474.472-3.014.624-1.54.151-2.904.445-3.032.652-.128.207-.752.377-1.386.377-.634 0-1.264.18-1.4.4-.136.22-.777.4-1.424.4-.647 0-1.176.18-1.176.4 0 .22-.529.4-1.176.4-.647 0-1.288.18-1.424.4-.136.22-.777.4-1.424.4-.647 0-1.176.163-1.176.362 0 .2-.9.487-2 .638-1.1.151-2 .438-2 .638 0 .199-.439.362-.976.362-.537 0-1.088.18-1.224.4-.136.22-.687.4-1.224.4-.537 0-.976.18-.976.4 0 .22-.36.4-.8.4-.44 0-.8.16-.8.355 0 .195-.81.476-1.8.624-.99.149-1.8.439-1.8.646 0 .206-.349.375-.776.375-.427 0-.888.18-1.024.4-.136.22-.597.4-1.024.4-.427 0-.776.18-.776.4 0 .22-.36.4-.8.4-.44 0-.8.18-.8.4 0 .22-.349.4-.776.4-.427 0-.888.18-1.024.4-.136.22-.505.4-.821.4-.816 0-3.779 1.329-3.779 1.694 0 .168-.345.306-.767.306-.421 0-.826.135-.9.3-.073.165-1.528.989-3.233 1.832-1.705.842-3.1 1.697-3.1 1.9 0 .202-.36.368-.8.368-.44 0-.8.18-.8.4 0 .22-.36.4-.8.4-.44 0-.8.16-.8.357 0 .196-.45.469-1 .607s-1 .428-1 .644c0 .215-.36.392-.8.392-.44 0-.8.18-.8.4 0 .22-.23.4-.512.4-.281 0-.771.36-1.088.8-.317.44-.875.8-1.239.8-.365 0-.887.27-1.161.6-.274.33-.706.6-.961.6-.254 0-.722.36-1.039.8-.317.44-.885.8-1.261.8-.377 0-.799.36-.939.8-.14.44-.589.8-.998.8-.41 0-1.015.27-1.345.6-.33.33-.72.6-.868.6-.147 0-.772.54-1.389 1.2-.617.66-1.396 1.2-1.731 1.2-.336 0-.965.45-1.398 1-.432.55-.991 1-1.242 1s-1.086.63-1.856 1.4c-.77.77-1.552 1.4-1.738 1.4-.186 0-1.041.675-1.899 1.5-.858.825-2.275 2.031-3.148 2.679-.873.649-1.898 1.549-2.278 2-.379.452-.855.975-1.057 1.164-.201.189-.996.974-1.766 1.744l-1.858 1.856a4560.213 4560.213 0 0 0-6.142 6.144c-.77.77-1.555 1.565-1.744 1.766-.188.202-.712.678-1.164 1.057-.451.38-1.351 1.41-2 2.29-.648.88-1.854 2.261-2.679 3.069-.825.807-1.5 1.656-1.5 1.886 0 .23-.63 1.048-1.4 1.818-.77.77-1.4 1.605-1.4 1.856 0 .251-.45.81-1 1.242-.55.433-1 1.017-1 1.299 0 .281-.54 1.076-1.2 1.767-.66.691-1.2 1.437-1.2 1.659 0 .222-.139.404-.309.404-.17 0-.648.63-1.063 1.4-.415.77-.906 1.4-1.091 1.4-.185 0-.337.27-.337.6 0 .33-.18.6-.4.6-.22 0-.4.27-.4.6 0 .33-.135.601-.3.603-.376.003-1.7 2.294-1.7 2.941 0 .264-.36.739-.8 1.056-.44.317-.8.807-.8 1.088 0 .282-.14.512-.31.512-.171 0-.666.808-1.1 1.796-.435.988-.925 1.798-1.09 1.8-.165.002-.3.364-.3.804 0 .44-.168.8-.373.8s-.487.359-.626.798c-.139.438-.473 1.023-.742 1.3-.588.603-1.859 3.245-1.859 3.862 0 .242-.18.44-.4.44-.22 0-.4.36-.4.8 0 .44-.18.8-.4.8-.22 0-.4.36-.4.8 0 .44-.138.8-.306.8-.371 0-1.694 2.969-1.694 3.803 0 .328-.18.597-.4.597-.22 0-.4.36-.4.8 0 .44-.18.8-.4.8-.22 0-.4.435-.4.967 0 .531-.143 1.026-.319 1.1-.446.186-2.064 3.749-2.349 5.171-.129.648-.392 1.276-.584 1.394-.191.118-.348.655-.348 1.192 0 .537-.18.976-.4.976-.22 0-.4.45-.4 1s-.18 1-.4 1c-.22 0-.4.439-.4.976 0 .537-.17 1.082-.377 1.21-.207.128-.498 1.041-.646 2.028-.148.988-.429 1.894-.623 2.015-.195.12-.354.748-.354 1.395s-.18 1.176-.4 1.176c-.22 0-.4.439-.4.976 0 .537-.18 1.088-.4 1.224-.22.136-.4.689-.4 1.229 0 .54-.158 1.294-.351 1.676-.661 1.309-1.223 3.496-1.493 5.806-.148 1.271-.423 2.407-.612 2.524-.189.117-.344.922-.344 1.789 0 .867-.18 1.576-.4 1.576-.22 0-.4.799-.4 1.776s-.18 1.888-.4 2.024c-.22.136-.4 1.101-.4 2.144 0 1.043-.173 2.069-.385 2.281-.212.212-.509 2.858-.661 5.88-.152 3.022-.428 5.495-.615 5.495-.186 0-.339 7.92-.339 17.6 0 9.68.154 17.6.342 17.6.188 0 .47 2.655.626 5.9.156 3.245.452 6.071.658 6.28.206.209.374 1.233.374 2.276 0 1.043.18 2.008.4 2.144.22.136.4 1.036.4 2s.18 1.864.4 2c.22.136.4.957.4 1.824 0 .867.157 1.576.348 1.576.192 0 .472 1.256.624 2.791.151 1.535.444 2.895.651 3.023.207.128.377.853.377 1.61 0 .757.18 1.376.4 1.376.22 0 .4.54.4 1.2 0 .66.18 1.2.4 1.2.22 0 .4.63.4 1.4 0 .77.18 1.4.4 1.4.22 0 .4.54.4 1.2 0 .66.163 1.2.362 1.2.2 0 .487.9.638 2 .151 1.099.438 2.1.637 2.223.2.123.363.664.363 1.201s.18.976.4.976c.22 0 .4.45.4 1s.18 1 .4 1c.22 0 .4.36.4.8 0 .44.156.8.347.8.191 0 .45.761.575 1.691.124.931.418 1.756.652 1.834.234.078.426.476.426.885 0 .408.18.854.4.99.22.136.4.597.4 1.024 0 .427.18.776.4.776.22 0 .4.36.4.8 0 .44.18.8.4.8.22 0 .4.45.4 1s.18 1 .4 1c.22 0 .4.269.4.597 0 .834 1.323 3.803 1.694 3.803.168 0 .306.36.306.8 0 .44.18.8.4.8.22 0 .4.345.4.767 0 .421.135.826.3.9.165.073.817 1.168 1.449 2.433.632 1.265 1.307 2.3 1.5 2.3.193 0 .351.36.351.8 0 .44.18.8.4.8.22 0 .4.36.4.8 0 .44.16.8.357.8.196 0 .469.45.607 1s.428 1 .644 1c.215 0 .392.36.392.8 0 .44.18.8.4.8.22 0 .4.23.4.512 0 .281.36.771.8 1.088.44.317.8.875.8 1.239 0 .365.27.887.6 1.161.33.274.6.746.6 1.049 0 .303.15.551.332.551.183 0 .587.495.898 1.1.31.605.855 1.37 1.21 1.7.355.33.773 1.005.93 1.5.156.495.452.9.657.9.205 0 .373.25.373.555 0 .305.538.98 1.196 1.5.658.52 1.198 1.229 1.2 1.575.002.347.454 1.053 1.004 1.57.55.517 1 1.094 1 1.283 0 .189.63.974 1.4 1.744.77.77 1.4 1.552 1.4 1.738 0 .186.675 1.041 1.5 1.899.825.858 2.031 2.275 2.679 3.148.649.873 1.549 1.898 2 2.278.452.379.951.829 1.109 1 .293.316 7.024 7.084 7.984 8.029.291.285 2.028 2.04 3.861 3.9 1.833 1.86 3.492 3.381 3.686 3.381.195 0 .948.585 1.673 1.3a32.794 32.794 0 0 0 2.914 2.479c.876.649 1.885 1.504 2.241 1.9.356.397.87.721 1.142.721.273 0 .85.45 1.282 1 .433.55 1.062 1 1.398 1 .335 0 1.114.54 1.731 1.2.617.66 1.319 1.2 1.56 1.2.242 0 .44.159.44.354 0 .195.63.654 1.4 1.019.77.366 1.4.836 1.4 1.046 0 .209.32.381.712.381.391 0 .971.36 1.288.8.317.44.785.8 1.039.8.255 0 .687.27.961.6.274.33.796.6 1.161.6.364 0 .922.36 1.239.8.317.44.807.8 1.088.8.282 0 .512.18.512.4 0 .22.36.4.8.4.44 0 .801.135.803.3.003.402 2.316 1.7 3.029 1.7.313 0 .568.18.568.4 0 .22.236.4.525.4.288 0 .873.321 1.3.713.729.671 1.803 1.229 4.875 2.531.715.303 1.3.687 1.3.854 0 .166.345.302.767.302.421 0 .826.142.9.316.206.49 4.658 2.484 5.544 2.484.434 0 .789.18.789.4 0 .22.36.4.8.4.44 0 .801.135.803.3.004.406 1.983 1.3 2.877 1.3.396 0 .72.169.72.375 0 .207.81.497 1.8.646.99.148 1.8.429 1.8.624s.36.355.8.355c.44 0 .8.18.8.4 0 .22.45.4 1 .4s1 .18 1 .4c0 .22.439.4.976.4.537 0 1.088.18 1.224.4.136.22.676.4 1.2.4.524 0 1.061.175 1.193.388.132.214 1.132.507 2.223.652 1.091.145 1.984.42 1.984.612 0 .191.63.348 1.4.348.77 0 1.4.18 1.4.4 0 .22.54.4 1.2.4.66 0 1.2.18 1.2.4 0 .22.63.4 1.4.4.77 0 1.4.165 1.4.366 0 .201 1.35.492 3 .647 1.65.154 3 .44 3 .634s.81.353 1.8.353 1.8.18 1.8.4c0 .22.799.4 1.776.4s1.888.18 2.024.4c.136.22 1.191.4 2.344.4 1.153 0 2.267.164 2.476.365.403.387 1.698.549 9.98 1.248 7.121.601 41.22.327 41.883-.336.263-.263 1.51-.477 2.773-.477 1.263 0 2.408-.18 2.544-.4.136-.22 1.126-.4 2.2-.4 1.074 0 2.064-.18 2.2-.4.136-.22 1.047-.4 2.024-.4.977 0 1.776-.18 1.776-.4 0-.22.81-.4 1.8-.4s1.8-.154 1.8-.343c0-.188 1.301-.463 2.891-.611 1.59-.148 3.066-.443 3.28-.657.214-.214.893-.389 1.509-.389.616 0 1.12-.18 1.12-.4 0-.22.63-.4 1.4-.4.77 0 1.4-.18 1.4-.4 0-.22.45-.4 1-.4s1-.18 1-.4c0-.22.534-.4 1.186-.4 1.148 0 4.39-.892 5.614-1.545.33-.176 1.455-.57 2.5-.875 1.045-.305 1.9-.695 1.9-.867 0-.172.45-.313 1-.313s1-.16 1-.355c0-.195.81-.476 1.8-.624.99-.149 1.8-.439 1.8-.646 0-.206.36-.375.8-.375.44 0 .8-.18.8-.4 0-.22.45-.4 1-.4s1-.18 1-.4c0-.22.36-.4.8-.4.44 0 .8-.16.8-.355 0-.196.63-.474 1.4-.619.77-.144 1.4-.434 1.4-.644 0-.21.225-.381.5-.381.653.002 9.66-4.472 9.833-4.885.074-.174.389-.316.7-.316.312 0 .567-.18.567-.4 0-.22.36-.4.8-.4.44 0 .8-.18.8-.4 0-.22.366-.4.813-.4.446 0 .916-.27 1.042-.6.127-.33.571-.6.988-.6.416 0 .757-.18.757-.4 0-.22.236-.4.525-.4.288 0 .911-.36 1.383-.8.472-.44 1.031-.8 1.242-.8.211 0 .443-.135.517-.3.073-.165.8-.639 1.614-1.053.815-.414 1.843-1.089 2.284-1.5.441-.411.927-.747 1.081-.747.153 0 .868-.45 1.59-1 .721-.55 1.463-1 1.649-1 .186 0 .598-.36.915-.8.317-.44.741-.8.941-.8.201 0 .656-.334 1.012-.743.356-.408 1.044-.868 1.529-1.021.486-.153 1.329-.809 1.875-1.457.545-.649 1.21-1.179 1.477-1.179.267 0 1.097-.63 1.845-1.4.748-.77 1.508-1.4 1.69-1.4.182 0 1.131-.765 2.108-1.7.978-.935 2.472-2.228 3.321-2.874C326.187 338.313 340 324.435 340 323.95c0-.202.99-1.342 2.2-2.533 1.21-1.191 2.2-2.348 2.2-2.572 0-.223.63-1.018 1.4-1.766.77-.748 1.4-1.578 1.4-1.845 0-.267.54-.94 1.2-1.495.66-.556 1.2-1.256 1.2-1.556 0-.301.45-.997 1-1.547.55-.55 1-1.122 1-1.271 0-.149.318-.562.706-.918.726-.666 2.894-3.853 2.894-4.255 0-.124.336-.586.747-1.027.411-.441 1.086-1.469 1.5-2.284.414-.814.888-1.541 1.053-1.614.165-.074.3-.306.3-.517 0-.211.36-.77.8-1.242.44-.472.8-1.095.8-1.383 0-.289.18-.525.4-.525.22 0 .4-.36.4-.8 0-.44.177-.8.392-.8.216 0 .506-.45.644-1s.411-1 .607-1c.197 0 .357-.36.357-.8 0-.44.18-.8.4-.8.22 0 .4-.27.4-.6 0-.33.18-.6.4-.6.22 0 .4-.36.4-.8 0-.44.16-.8.357-.8.196 0 .48-.493.631-1.096.152-.603.397-1.188.546-1.3.451-.34 2.866-5.277 2.866-5.86 0-.299.172-.544.382-.544.21 0 .5-.63.644-1.4.145-.77.423-1.4.619-1.4.195 0 .355-.36.355-.8 0-.44.18-.8.4-.8.22 0 .4-.45.4-1s.18-1 .4-1c.22 0 .4-.36.4-.8 0-.44.169-.8.375-.8.207 0 .497-.81.646-1.8.148-.99.429-1.8.624-1.8s.355-.45.355-1 .159-1 .353-1c.195 0 .449-.405.564-.9.116-.495.761-2.43 1.433-4.3.673-1.87 1.229-3.884 1.236-4.476.008-.592.194-1.188.414-1.324.22-.136.4-.687.4-1.224 0-.537.18-.976.4-.976.22 0 .4-.529.4-1.176 0-.647.18-1.288.4-1.424.22-.136.4-.741.4-1.344 0-.603.175-1.271.389-1.485.214-.214.509-1.69.657-3.28.148-1.59.423-2.891.611-2.891.189 0 .343-.709.343-1.576 0-.867.18-1.688.4-1.824.22-.136.4-1.036.4-2s.18-1.864.4-2c.22-.136.4-1.101.4-2.144 0-1.043.165-2.067.366-2.276.202-.209.464-1.46.584-2.78.12-1.32.418-4.65.663-7.4.577-6.46.327-39.307-.304-40.072-.239-.29-.539-1.698-.665-3.128-.564-6.38-.737-7.6-1.08-7.6-.2 0-.364-.799-.364-1.776s-.18-1.888-.4-2.024c-.22-.136-.4-.946-.4-1.8 0-.854-.159-1.651-.352-1.771-.194-.119-.48-1.57-.635-3.223-.155-1.653-.446-3.006-.647-3.006s-.366-.619-.366-1.376c0-.757-.18-1.488-.4-1.624-.22-.136-.4-.766-.4-1.4 0-.634-.18-1.264-.4-1.4-.22-.136-.4-.687-.4-1.224 0-.537-.159-.976-.354-.976-.195 0-.478-.99-.629-2.2-.151-1.21-.442-2.2-.646-2.2-.204 0-.371-.439-.371-.976 0-.537-.18-1.088-.4-1.224-.22-.136-.4-.687-.4-1.224 0-.537-.18-.976-.4-.976-.22 0-.4-.54-.4-1.2 0-.66-.18-1.2-.4-1.2-.22 0-.4-.324-.4-.72 0-.396-.143-.891-.318-1.1-.175-.209-.663-1.46-1.084-2.78-.422-1.32-.864-2.49-.983-2.6-.534-.496-1.215-2.062-1.215-2.795 0-.443-.16-.805-.355-.805-.196 0-.474-.63-.619-1.4-.144-.77-.434-1.4-.644-1.4-.21 0-.382-.36-.382-.8 0-.44-.18-.8-.4-.8-.22 0-.4-.27-.4-.6 0-.33-.18-.6-.4-.6-.22 0-.4-.36-.4-.8 0-.44-.18-.8-.4-.8-.22 0-.4-.36-.4-.8 0-.44-.172-.8-.382-.8-.21 0-.5-.63-.644-1.4-.145-.77-.423-1.4-.619-1.4-.195 0-.355-.36-.355-.8 0-.44-.18-.8-.4-.8-.22 0-.4-.27-.4-.6 0-.33-.18-.6-.4-.6-.22 0-.4-.36-.4-.8 0-.44-.177-.8-.392-.8-.216 0-.506-.45-.644-1s-.411-1-.607-1c-.197 0-.357-.36-.357-.8 0-.44-.18-.8-.4-.8-.22 0-.4-.23-.4-.512 0-.281-.36-.771-.8-1.088-.44-.317-.8-.897-.8-1.288 0-.392-.18-.712-.4-.712-.22 0-.4-.215-.4-.478 0-.527-2.021-3.642-2.5-3.855-.165-.074-.3-.389-.3-.7 0-.312-.139-.567-.309-.567-.17 0-.663-.675-1.095-1.5-.432-.825-1.102-1.791-1.49-2.147-.389-.356-.706-.769-.706-.918 0-.149-.45-.721-1-1.271-.55-.55-1-1.242-1-1.537 0-.295-.538-.962-1.196-1.482-.658-.52-1.198-1.157-1.2-1.417-.002-.259-.634-1.139-1.404-1.955-.77-.817-1.4-1.62-1.4-1.785 0-.165-.99-1.306-2.2-2.535-1.21-1.23-2.2-2.324-2.2-2.431 0-.253-2.225-2.75-3.943-4.425-1.712-1.669-1.51-1.466-5.711-5.754-1.962-2.004-3.731-3.643-3.93-3.643-.199 0-.464-.315-.588-.7-.125-.385-.89-1.15-1.701-1.7s-2.274-1.765-3.251-2.7c-.977-.935-1.937-1.7-2.133-1.7-.196 0-.969-.63-1.717-1.4-.747-.77-1.566-1.4-1.818-1.4-.253 0-.906-.53-1.451-1.179-.546-.648-1.389-1.304-1.875-1.457-.485-.153-1.173-.613-1.529-1.021-.356-.409-.769-.743-.918-.743-.149 0-.721-.45-1.271-1-.55-.55-1.262-1-1.582-1-.32 0-.582-.15-.582-.332 0-.183-.495-.588-1.1-.9-.605-.313-1.423-.859-1.819-1.215-.395-.356-1.375-.986-2.179-1.4-1.438-.741-2.481-1.469-3.518-2.453-.29-.275-.81-.5-1.155-.5-.346 0-.629-.16-.629-.357 0-.196-.45-.469-1-.607s-1-.428-1-.644c0-.215-.36-.392-.8-.392-.44 0-.8-.18-.8-.4 0-.22-.36-.4-.8-.4-.44 0-.8-.18-.8-.4 0-.22-.27-.4-.6-.4-.33 0-.6-.135-.6-.3 0-.165-1.168-.84-2.595-1.5-1.427-.66-2.597-1.335-2.6-1.5-.003-.165-.244-.3-.537-.3-.293 0-1.418-.449-2.5-.998-1.082-.549-2.283-.999-2.668-1-.385-.001-.7-.182-.7-.402 0-.22-.36-.4-.8-.4-.44 0-.8-.18-.8-.4 0-.22-.36-.4-.8-.4-.44 0-.8-.18-.8-.4 0-.22-.349-.4-.776-.4-.427 0-.888-.18-1.024-.4-.136-.22-.597-.4-1.024-.4-.427 0-.776-.169-.776-.375 0-.207-.81-.497-1.8-.646-.99-.148-1.8-.429-1.8-.624s-.272-.355-.605-.355c-.333 0-1.008-.208-1.5-.462-1.926-.996-2.312-1.138-3.09-1.138-.443 0-.805-.163-.805-.362 0-.2-.9-.487-2-.638-1.1-.151-2-.438-2-.638 0-.199-.529-.362-1.176-.362-.647 0-1.288-.18-1.424-.4-.136-.22-.777-.4-1.424-.4-.647 0-1.176-.18-1.176-.4 0-.22-.529-.4-1.176-.4-.647 0-1.288-.18-1.424-.4-.136-.22-.741-.4-1.344-.4-.603 0-1.271-.175-1.485-.389-.214-.214-1.69-.509-3.28-.657-1.59-.148-2.891-.423-2.891-.611 0-.189-.709-.343-1.576-.343-.867 0-1.688-.18-1.824-.4-.136-.22-1.036-.4-2-.4s-1.864-.18-2-.4c-.136-.22-1.101-.4-2.144-.4-1.043 0-2.074-.178-2.291-.395-.217-.217-3.043-.515-6.28-.662-3.237-.147-5.885-.419-5.885-.605s-7.38-.338-16.4-.338-16.4.152-16.4.338m-68.669 126.879c8.006.685 18.147 2.635 23.669 4.553l1.6.555.107 10.038c.117 11.048.241 10.559-2.388 9.461-2.858-1.194-9.404-2.759-17.919-4.284-4.103-.734-20.523-.736-23.8-.003-18.355 4.11-26.05 16.344-25.957 41.263.103 27.614 12.49 39.09 40.757 37.759 6.389-.301 14.352-1.57 16.261-2.592.645-.345 1.263-27.911.639-28.454-.055-.048-6.4-.183-14.1-.3l-14-.213-.109-7.444c-.086-5.951.003-7.536.445-7.903.406-.337 6.78-.432 23.909-.356L147.4 193l.103 28.46.102 28.461-1.902 1.133c-18.671 11.115-55.266 11.924-73.103 1.616-18.715-10.815-27.711-32.532-24.802-59.87.317-2.97.656-5.76.755-6.2.098-.44.398-1.88.666-3.2.617-3.039 1.53-6.563 1.969-7.6.186-.44.82-2.06 1.409-3.6 8.757-22.912 30.922-34.071 62.334-31.383M247.907 151.5l.108 9.3H189.2v30.4h52.4v17.994l-26.1.103-26.1.103-.105 15.3-.105 15.3h58.825l-.107 9.1-.108 9.1h-81.2l-.103-57.6c-.056-31.68-.017-57.826.088-58.102.152-.399 8.505-.481 40.703-.4l40.512.102.107 9.3m105.252-8.949c.319.384.424 3.182.349 9.3l-.108 8.749-17.8.2-17.8.2-.102 48.493-.101 48.493-.899.219c-.494.121-5.488.169-11.098.108l-10.2-.113-.102-48.696-.101-48.696-17.899-.104-17.898-.104-.108-8.972c-.083-6.91.009-9.045.4-9.293.977-.621 92.949-.408 93.467.216" fill="#9c1c1c"/>
  </g>
</svg>
